<svg width="80" height="64" viewBox="0 0 80 64" fill="none" xmlns="http://www.w3.org/2000/svg">
<g clip-path="url(#clip0_74_2)">
<path d="M51.4761 24.1954H47.1217C39.774 24.1954 32.7273 27.1143 27.5317 32.3099C22.3361 37.5055 19.4172 44.5522 19.4172 51.8999V64H37.2094V59.3465C37.2094 56.1367 38.4845 53.0584 40.7541 50.7887C43.0238 48.5191 46.1021 47.244 49.3119 47.244C52.5196 47.2471 55.5949 48.5236 57.862 50.7929C60.1291 53.0622 61.4025 56.1387 61.4025 59.3465V64H79.1806V51.8999C79.1806 48.2617 78.464 44.6591 77.0717 41.2978C75.6794 37.9366 73.6387 34.8825 71.0661 32.3099C68.4935 29.7373 65.4394 27.6966 62.0781 26.3043C58.7169 24.912 55.1143 24.1954 51.4761 24.1954Z" fill="#7854A3"/>
<path d="M2.78363 56.9255H11.7751L11.2311 45.1363L31.6774 45.2964C43.516 45.2964 56.4051 36.086 56.4051 24.2473L58.8095 0.419193C54.4127 0.419193 25.5119 0 25.5119 0C11.4807 0 0 11.4807 0 25.5119V26.3762" fill="#583393"/>
<path d="M12.6017 32.2355C14.1651 32.2355 15.4325 30.9681 15.4325 29.4048C15.4325 27.8414 14.1651 26.574 12.6017 26.574C11.0384 26.574 9.771 27.8414 9.771 29.4048C9.771 30.9681 11.0384 32.2355 12.6017 32.2355Z" fill="white"/>
</g>
<defs>
<clipPath id="clip0_74_2">
<rect width="79.1805" height="64" fill="white"/>
</clipPath>
</defs>
</svg>